<?xml version="1.0" encoding="iso-8859-1"?>
<!-- Generator: Adobe Illustrator 19.0.0, SVG Export Plug-In . SVG Version: 6.00 Build 0)  -->
<svg version="1.1" id="Capa_1" xmlns="http://www.w3.org/2000/svg" xmlns:xlink="http://www.w3.org/1999/xlink" x="0px" y="0px"
	 viewBox="0 0 409.595 409.595" style="enable-background:new 0 0 409.595 409.595;" xml:space="preserve">
<path id="XMLID_514_" d="M338.89,88.209l-21.373-42.012V9c0-4.971-4.029-9-9-9H101.08c-4.971,0-9,4.029-9,9v37.197L70.705,88.209
	c-0.743,1.461-1.074,3.097-0.955,4.731l22.354,308.306c0.341,4.705,4.259,8.349,8.977,8.349h54.479c4.448,0,8.229-3.249,8.897-7.646
	l26.195-172.255c0.046-0.305,0.077-0.61,0.092-0.917l2.789-57.457h22.532l2.787,57.456c0.015,0.308,0.045,0.613,0.091,0.918
	l26.195,172.255c0.669,4.397,4.45,7.646,8.898,7.646h54.481c4.718,0,8.635-3.644,8.977-8.35L339.845,92.94
	C339.963,91.306,339.633,89.67,338.89,88.209z M300.146,391.595h-13.216l2.671-168.6c0.004-0.258-0.003-0.517-0.021-0.774
	l-6.95-98.77c-0.349-4.958-4.664-8.712-9.609-8.346c-4.958,0.349-8.695,4.651-8.346,9.609l6.922,98.383l-2.669,168.497h-7.156
	l-24.963-164.152l-2.722-56.123h3.533c4.971,0,9-4.029,9-9s-4.029-9-9-9h-65.644c-4.971,0-9,4.029-9,9s4.029,9,9,9h3.537
	l-2.724,56.123l-24.963,164.152h-7.235l-2.669-168.498l6.92-98.382c0.349-4.959-3.388-9.261-8.347-9.609
	c-4.951-0.366-9.26,3.388-9.609,8.346l-6.947,98.77c-0.018,0.258-0.025,0.517-0.021,0.774l2.671,168.6h-13.135L87.884,94.139
	l18.715-36.784h43.96c4.971,0,9-4.029,9-9s-4.029-9-9-9H110.08V18h189.437v21.354h-40.483c-4.971,0-9,4.029-9,9s4.029,9,9,9h43.964
	l18.713,36.783L300.146,391.595z M238.365,101.058c1.731,4.659-0.642,9.84-5.301,11.571c-1.034,0.384-2.093,0.565-3.134,0.565
	c-3.654,0-7.09-2.241-8.438-5.867l-16.693-44.92l-16.693,44.92c-1.348,3.626-4.784,5.867-8.438,5.867
	c-1.042,0-2.101-0.182-3.134-0.565c-4.659-1.731-7.033-6.912-5.301-11.571l20.62-55.485h-4.824c-4.971,0-9-4.029-9-9s4.029-9,9-9
	h35.54c4.971,0,9,4.029,9,9s-4.029,9-9,9h-4.822L238.365,101.058z"/>
<g>
</g>
<g>
</g>
<g>
</g>
<g>
</g>
<g>
</g>
<g>
</g>
<g>
</g>
<g>
</g>
<g>
</g>
<g>
</g>
<g>
</g>
<g>
</g>
<g>
</g>
<g>
</g>
<g>
</g>
</svg>
