<svg display="none"  xmlns="http://www.w3.org/2000/svg" >

  <symbol id="plus" viewBox="0 0 30 30">
    <polygon points="30,14 16,14 16,0 14,0 14,14 0,14 0,16 14,16 14,30 16,30 16,16 30,16 "/>
  </symbol>	
	<symbol id="fb" viewBox="0 0 96.124 96.123">
      <path d="M72.089,0.02L59.624,0C45.62,0,36.57,9.285,36.57,23.656v10.907H24.037c-1.083,0-1.96,0.878-1.96,1.961v15.803
    c0,1.083,0.878,1.96,1.96,1.96h12.533v39.876c0,1.083,0.877,1.96,1.96,1.96h16.352c1.083,0,1.96-0.878,1.96-1.96V54.287h14.654
    c1.083,0,1.96-0.877,1.96-1.96l0.006-15.803c0-0.52-0.207-1.018-0.574-1.386c-0.367-0.368-0.867-0.575-1.387-0.575H56.842v-9.246
    c0-4.444,1.059-6.7,6.848-6.7l8.397-0.003c1.082,0,1.959-0.878,1.959-1.96V1.98C74.046,0.899,73.17,0.022,72.089,0.02z"/>
  </symbol>
  <symbol id="twitter" viewBox="0 0 449.956 449.956">
    <path d="M449.956,85.657c-17.702,7.614-35.408,12.369-53.102,14.279c19.985-11.991,33.503-28.931,40.546-50.819
        c-18.281,10.847-37.787,18.268-58.532,22.267c-18.274-19.414-40.73-29.125-67.383-29.125c-25.502,0-47.246,8.992-65.24,26.98
        c-17.984,17.987-26.977,39.731-26.977,65.235c0,6.851,0.76,13.896,2.284,21.128c-37.688-1.903-73.042-11.372-106.068-28.407
        C82.46,110.158,54.433,87.46,31.403,59.101c-8.375,14.272-12.564,29.787-12.564,46.536c0,15.798,3.711,30.456,11.138,43.97
        c7.422,13.512,17.417,24.455,29.98,32.831c-14.849-0.572-28.743-4.475-41.684-11.708v1.142c0,22.271,6.995,41.824,20.983,58.674
        c13.99,16.848,31.645,27.453,52.961,31.833c-7.995,2.091-16.086,3.138-24.269,3.138c-5.33,0-11.136-0.475-17.416-1.42
        c5.9,18.459,16.75,33.633,32.546,45.535c15.799,11.896,33.691,18.028,53.677,18.418c-33.498,26.262-71.66,39.393-114.486,39.393
        c-8.186,0-15.607-0.373-22.27-1.139c42.827,27.596,90.03,41.394,141.612,41.394c32.738,0,63.478-5.181,92.21-15.557
        c28.746-10.369,53.297-24.267,73.665-41.686c20.362-17.415,37.925-37.448,52.674-60.097c14.75-22.651,25.738-46.298,32.977-70.946
        c7.23-24.653,10.848-49.344,10.848-74.092c0-5.33-0.096-9.325-0.287-11.991C421.785,120.202,437.202,104.306,449.956,85.657z"/>  
  </symbol>
  <symbol id="instagram" viewBox="0 0 169.063 169.063">
      <path d="M122.406,0H46.654C20.929,0,0,20.93,0,46.655v75.752c0,25.726,20.929,46.655,46.654,46.655h75.752
      c25.727,0,46.656-20.93,46.656-46.655V46.655C169.063,20.93,148.133,0,122.406,0z M154.063,122.407
      c0,17.455-14.201,31.655-31.656,31.655H46.654C29.2,154.063,15,139.862,15,122.407V46.655C15,29.201,29.2,15,46.654,15h75.752
      c17.455,0,31.656,14.201,31.656,31.655V122.407z"/>
    <path d="M84.531,40.97c-24.021,0-43.563,19.542-43.563,43.563c0,24.02,19.542,43.561,43.563,43.561s43.563-19.541,43.563-43.561
      C128.094,60.512,108.552,40.97,84.531,40.97z M84.531,113.093c-15.749,0-28.563-12.812-28.563-28.561
      c0-15.75,12.813-28.563,28.563-28.563s28.563,12.813,28.563,28.563C113.094,100.281,100.28,113.093,84.531,113.093z"/>
    <path d="M129.921,28.251c-2.89,0-5.729,1.17-7.77,3.22c-2.051,2.04-3.23,4.88-3.23,7.78c0,2.891,1.18,5.73,3.23,7.78
      c2.04,2.04,4.88,3.22,7.77,3.22c2.9,0,5.73-1.18,7.78-3.22c2.05-2.05,3.22-4.89,3.22-7.78c0-2.9-1.17-5.74-3.22-7.78
      C135.661,29.421,132.821,28.251,129.921,28.251z"/>
  </symbol>
  <symbol id="buy" viewBox="0 0 289.104 289.104">
     <path d="M289.104,113.766c0-15.293-12.441-27.734-27.734-27.734h-44.651L176.948,43.55c3.905-0.984,6.799-4.508,6.799-8.718
    c0-4.971-4.029-9-9-9h-60.391c-4.971,0-9,4.029-9,9c0,4.21,2.894,7.734,6.799,8.718L72.386,86.032H27.734
    C12.441,86.032,0,98.473,0,113.766c0,15.11,12.148,27.428,27.189,27.721l6.849,94.874c1.091,15.09,13.796,26.911,28.925,26.911
    h163.178c15.129,0,27.834-11.821,28.925-26.912l6.849-94.873C276.956,141.194,289.104,128.876,289.104,113.766z M261.369,123.5
    H27.734c-5.367,0-9.734-4.367-9.734-9.734s4.367-9.734,9.734-9.734h27.838c-3.015,3.636-2.721,9.033,0.773,12.304
    c1.735,1.625,3.944,2.43,6.148,2.43c2.403,0,4.801-0.957,6.572-2.849l11.125-11.884h128.72l11.125,11.884
    c1.771,1.893,4.169,2.849,6.572,2.849c2.204,0,4.413-0.805,6.148-2.43c3.494-3.271,3.788-8.668,0.773-12.304h27.838
    c5.367,0,9.734,4.367,9.734,9.734S266.736,123.5,261.369,123.5z M136.548,43.833h16.008l39.505,42.199H97.043L136.548,43.833z
     M226.141,245.271H62.963c-5.738,0-10.558-4.484-10.972-10.208L45.237,141.5h198.63l-6.755,93.562
    C236.698,240.787,231.879,245.271,226.141,245.271z"/>  
    <rect x="76.427" y="157.787" width="22.462" height="28.215"/>
    <rect x="114.356" y="157.787" width="22.463" height="28.215"/>
    <rect x="152.285" y="157.787" width="22.463" height="28.215"/>
    <rect x="190.214" y="157.787" width="22.462" height="28.215"/>
    <rect x="76.427" y="196.035" width="22.462" height="28.215"/>
    <rect x="114.356" y="196.035" width="22.463" height="28.215"/>
    <rect x="152.285" y="196.035" width="22.463" height="28.215"/>
    <rect x="190.214" y="196.035" width="22.462" height="28.215"/>
  </symbol>
   <symbol id="Tshirt" viewBox="0 0 472.776 472.777"> 
     <path d=" M472.616,81.858c-0.297-0.97-0.948-1.767-1.842-2.244l-98.788-52.87c-0.347-0.187-0.721-0.316-1.097-0.381
      c-0.229-0.046-0.475-0.069-0.73-0.069H102.564c-0.715,0-1.411,0.201-1.982,0.562L2.006,79.615
      c-0.894,0.479-1.548,1.276-1.841,2.246c-0.294,0.971-0.192,1.997,0.287,2.891l45.405,84.843c0.473,0.882,1.292,1.553,2.247,1.842
      c0.292,0.088,0.602,0.135,0.941,0.144l0.158,0.019c0.054,0,0.109-0.007,0.147-0.017c0.197-0.008,0.392-0.033,0.664-0.086
      c0.064-0.012,0.128-0.023,0.182-0.039c0.304-0.082,0.565-0.183,0.798-0.309l47.775-25.568v297.106c0,2.092,1.703,3.795,3.795,3.795
      H370.16c2.093,0,3.795-1.703,3.795-3.795V145.549l47.832,25.6c0.229,0.123,0.489,0.225,0.799,0.31
      c0.061,0.017,0.121,0.028,0.249,0.051c0.198,0.04,0.396,0.065,0.594,0.073l0.149,0.015c0.068,0,0.124-0.012,0.114-0.015
      c0.367-0.01,0.689-0.059,0.984-0.148c0.971-0.293,1.768-0.947,2.245-1.841l45.406-84.841
      C472.8,83.87,472.905,82.816,472.616,81.858z M63.822,155.674l-13.065,6.993L8.932,84.516l13.064-6.991L63.822,155.674z
       M228.321,39.477v-5.592h16.136v5.592H228.321z M366.361,214.478v14.38H106.359v-14.38H366.361z M366.359,236.448v202.443H106.358
      V236.448H366.359z M224.525,47.066h23.728c2.093,0,3.796-1.702,3.796-3.795v-9.388h39.99l-55.651,55.65L180.74,33.885h39.99v9.387
      C220.73,45.364,222.433,47.066,224.525,47.066z M366.359,139.214v45.704H106.358v-45.674c0-1.325-0.707-2.573-1.845-3.256
      c-1.125-0.674-2.588-0.711-3.741-0.091l-30.257,16.192L28.691,73.94l74.843-40.058h66.472l63.699,63.701
      c1.429,1.43,3.937,1.434,5.371,0l63.698-63.701h66.473L444.09,73.94l-41.825,78.149l-30.317-16.222
      c-1.153-0.618-2.616-0.584-3.741,0.091C367.066,136.639,366.359,137.887,366.359,139.214z M366.359,192.506v14.38H106.358v-14.38
      H366.359z M463.845,84.515l-41.823,78.15l-13.064-6.993l41.824-78.148L463.845,84.515z"/>
   </symbol>
   <symbol id="oxford-shoes" viewBox="0 0 470 470">
    <path d="M462.5,282.075h-1.79v-9.496c0-20.145-16.234-38.779-36.189-41.539l-41.945-5.801
      c-15.433-2.134-40.206-9.897-54.096-16.952c-0.052-0.026-0.104-0.052-0.155-0.077l-54.584-26.155l1.312-2.584
      c1.876-3.693,0.403-8.208-3.29-10.083c-3.695-1.875-8.209-0.402-10.083,3.291l-1.469,2.893l-21.389-10.249l1.717-3.381
      c1.875-3.693,0.401-8.208-3.291-10.083c-3.694-1.875-8.208-0.402-10.084,3.291l-1.874,3.689l-31.152-14.927
      c-0.015-0.007-5.175-2.48-5.175-2.48c-3.736-1.79-8.215-0.213-10.005,3.522c-0.829,1.729-0.928,3.615-0.433,5.323l-54.522,39.127
      c-15.547,11.158-42.898,12.885-59.727,3.771l-38.557-20.882c-1.838-0.997-4.009-1.18-5.989-0.505
      c-1.979,0.674-3.588,2.144-4.437,4.055c-5.55,12.497-8.364,25.82-8.364,39.598v66.662C3.054,282.396,0,285.625,0,289.575v32.232
      c0,4.142,3.357,7.5,7.5,7.5h119.587c4.053,0,7.354-3.214,7.495-7.232h87.709l44.436,7.137c0.394,0.063,0.791,0.095,1.189,0.095
      H462.5c4.143,0,7.5-3.358,7.5-7.5v-32.232C470,285.433,466.643,282.075,462.5,282.075z M445.71,272.579v9.496h-56.662v-40.798
      l33.418,4.622C435.065,247.641,445.71,259.859,445.71,272.579z M26.063,189.538l31.069,16.827
      c22.039,11.937,55.252,9.838,75.615-4.774l58.874-42.25l26.873,12.877l-10.113,19.912c-1.875,3.693-0.401,8.208,3.291,10.083
      c1.089,0.553,2.248,0.814,3.391,0.814c2.734,0,5.37-1.5,6.693-4.105l10.269-20.22l21.389,10.249l-10.113,19.912
      c-1.876,3.693-0.403,8.208,3.29,10.083c1.089,0.553,2.248,0.814,3.391,0.814c2.734,0,5.37-1.5,6.692-4.105l10.271-20.221
      l21.388,10.249l-7.868,15.494c-2.465,4.852-9.665,9.271-15.106,9.271h-46.747c-4.143,0-7.5,3.358-7.5,7.5s3.357,7.5,7.5,7.5h46.747
      c10.991,0,23.502-7.677,28.48-17.478l8.025-15.802l19.9,9.535c13.542,6.863,35.574,14.075,52.282,17.309v43.065H95.221
      c3.53-20.765,21.638-36.629,43.393-36.629h50c4.143,0,7.5-3.358,7.5-7.5s-3.357-7.5-7.5-7.5h-50
      c-30.04,0-54.894,22.563-58.546,51.629H21.929v-66.633C21.929,206.532,23.316,197.85,26.063,189.538z M455,314.307H268.515
      l-44.436-7.137c-0.394-0.063-0.791-0.095-1.189-0.095h-95.803c-4.053,0-7.354,3.214-7.495,7.232H15v-17.232h440V314.307z"/>     
   </symbol>
   <symbol id="shirt" viewBox="0 0 428.979 428.979">
    <path d="M360.388,40.716h-42.365V7.5c0-2.455-1.201-4.753-3.215-6.156C313.534,0.457,310.524,0,310.524,0H118.46
      c0,0-3.01,0.457-4.285,1.344c-2.014,1.402-3.215,3.701-3.215,6.156v33.216H68.591c-4.142,0-7.5,3.358-7.5,7.5v373.263
      c0,4.142,3.358,7.5,7.5,7.5h291.797c4.142,0,7.5-3.358,7.5-7.5V48.216C367.888,44.074,364.531,40.716,360.388,40.716z
       M214.492,35.069L160.304,15h108.375L214.492,35.069z M303.024,18.276v41.926l-53.625,32.771l-24.271-45.846L303.024,18.276z
       M125.96,18.276l77.897,28.851l-24.271,45.847L125.96,60.202V18.276z M76.091,155.302h66.733v18.789H76.091V155.302z
       M76.091,189.091h74.233c4.142,0,7.5-3.358,7.5-7.5v-33.789c0-4.142-3.358-7.5-7.5-7.5H76.091V55.716h34.869v8.692
      c0,2.613,1.36,5.037,3.589,6.399l64.021,39.124c1.188,0.727,2.543,1.101,3.911,1.101c0.664,0,1.331-0.088,1.983-0.267
      c1.996-0.547,3.676-1.895,4.645-3.724l17.882-33.778v340.716H76.091V189.091z M221.992,413.979V73.264l17.882,33.778
      c0.968,1.829,2.649,3.176,4.645,3.724c0.653,0.179,1.319,0.267,1.983,0.267c1.368,0,2.723-0.374,3.911-1.101l64.021-39.124
      c2.229-1.362,3.589-3.787,3.589-6.399v-8.692h34.865v84.585h-74.233c-4.142,0-7.5,3.358-7.5,7.5v33.789c0,4.142,3.358,7.5,7.5,7.5
      h74.233v224.889H221.992z M352.888,174.091h-66.733v-18.789h66.733V174.091z"/>     
   </symbol>
   <symbol id="snikers" viewBox="0 0 417.142 417.142">
     <g>
      <path d="M415.892,220.574c-0.699-11.589-3.871-55.563-12.851-79.6c-0.303-0.81-0.745-1.567-1.355-2.18
        c-1.829-1.839-4.486-2.268-6.702-1.299c-1.932,0.845-4.487,1.274-7.596,1.274c-7.845,0-15.963-2.755-16.036-2.78
        c-2.567-0.889-5.417,0.061-6.938,2.316c-9.2,13.636-28.254,35.661-40.217,36.71c-2.008,0.176-4.042,0.266-6.048,0.266
        c-26.764,0-46.036-15.861-51.097-20.497c-1.415-9.365-8.364-44.8-33.207-52.185c-0.952-0.297-1.956-0.448-2.983-0.448
        c-4.726,0-12.085,2.68-27.183,23.574c-6.134,8.489-11.302,16.863-13.278,20.135L90.399,201.206
        c-2.526,1.398-5.242,2.418-8.064,3.027l-67.26,14.528c-9.252,1.999-15.578,10.307-15.044,19.757c0,0,1.557,25.48,1.814,26.103
        c0.852,2.057,22.155,50.37,134.21,50.37h258.819c5.985,0,11.845-2.216,16.042-6.484c4.104-4.174,6.314-9.695,6.222-15.548
        l-1.053-67.384C416.086,225.575,415.986,222.126,415.892,220.574z M81.012,223.219c1.136,3.497,4.043,8.3,11.438,11.326
        c5.728,2.343,12.549,3.588,19.771,4.906c10.73,1.958,21.771,3.981,29.943,9.601c-1.185,1.392-2.741,2.415-4.557,2.943
        c-2.603,0.756-5.31,0.395-7.621-1.021l-6.35-3.887c-8.336-5.104-17.955-7.771-27.691-7.721c-0.558,0.003-1.109,0.004-1.661,0.004
        c-29.694,0-52.015-4.316-62.848-11.867l48.763-10.533C80.113,218.958,80.316,221.078,81.012,223.219z M149.229,239.354
        c-10.336-7.22-23.258-9.592-34.855-11.708c-6.588-1.202-12.811-2.338-17.381-4.207c-2.504-1.024-4.037-2.334-4.558-3.894
        c-0.665-1.993,0.098-4.57,0.794-6.19l29.659-16.415l11.432,19.923c1.109,1.933,3.13,3.015,5.21,3.015
        c1.013,0,2.039-0.257,2.98-0.797c2.874-1.649,3.867-5.316,2.218-8.19l-11.339-19.762l6.512-3.604l11.627,20.263
        c1.109,1.933,3.131,3.015,5.21,3.015c1.013,0,2.039-0.257,2.98-0.797c2.874-1.649,3.867-5.316,2.218-8.19l-11.534-20.102
        l6.353-3.516l10.808,18.836c1.109,1.933,3.131,3.015,5.21,3.015c1.013,0,2.039-0.257,2.98-0.797
        c2.874-1.649,3.867-5.316,2.218-8.19l-10.716-18.675l7.359-4.073l10.902,19.001c1.109,1.933,3.131,3.015,5.21,3.015
        c1.013,0,2.039-0.257,2.98-0.797c2.874-1.649,3.867-5.316,2.218-8.19l-10.81-18.84l7.776-4.304
        c3.993,5.281,11.671,14.148,23.569,22.744c15.341,11.083,40.731,23.677,76.889,23.677c3.163,0,6.412-0.096,9.74-0.299
        c7.02-0.427,13.842-0.969,20.444-1.615c-13.814,12.114-20.18,22.093-22.717,26.889l-51.142,12.501
        c-21.308,5.209-43.419,3.864-63.939-3.888l-10.203-3.854C166.219,230.833,156.149,233.016,149.229,239.354z M398.568,172.878
        c2.456,14.533,3.928,29.721,4.721,39.719c-7.825-3.239-16.588-4-24.99-1.946l-60.234,14.724
        C328.205,212.838,350.871,192.005,398.568,172.878z M325.246,186.969c18.404-1.614,39.21-28.122,46.593-38.352
        c3.819,0.978,9.637,2.152,15.549,2.152c2.171,0,4.219-0.159,6.131-0.474c0.995,3.279,1.905,6.849,2.734,10.593
        c-18.224,7.181-33.124,14.682-45.275,22.014c-6.099,3.68-12.881,6.109-19.956,6.933c-9.07,1.056-18.661,1.896-28.66,2.505
        c-30.151,1.833-56.533-5.164-78.412-20.796c-3.598-2.57-6.771-5.177-9.536-7.681c4.858-6.221,11.722-13.206,16.431-14.383
        c4.607-1.153,17.382,5.595,26.565,12.691c3.229,3.249,26.235,25.11,60.74,25.11C320.504,187.28,322.891,187.175,325.246,186.969z
         M230.747,114.201c10.07,3.239,16.168,14.488,19.521,23.418c0.885,2.357,1.63,4.684,2.255,6.879
        c-7.729-4.427-17.352-8.47-24.59-6.661c-8.488,2.122-16.96,11.138-21.985,17.391c-1.754-2.025-3.118-3.775-4.105-5.117
        C213.034,131.719,226.001,115.544,230.747,114.201z M17.329,230.564c8.026,10.29,28.137,20.807,76.841,20.807
        c0.609,0,1.224-0.001,1.841-0.005c7.544-0.073,14.931,2.019,21.361,5.956l6.35,3.887c3.408,2.087,7.312,3.162,11.242,3.162
        c2.013,0,4.032-0.282,5.997-0.853c5.803-1.688,10.653-5.77,13.31-11.198c3.102-6.34,10.42-9.237,17.021-6.744l10.204,3.854
        c22.795,8.612,47.355,10.105,71.029,4.319l128.624-31.441c7.932-1.939,16.326-0.309,22.953,4.338l0.4,25.6
        c-26.336-0.226-127.444-0.322-166.129,10.986c-40.678,11.891-68.388,12.424-129.102,13.592l-8.666,0.168
        c-33.659,0.669-56.173-4.621-69.139-9.167c-9.565-3.354-15.46-6.806-18.247-8.666l-1.207-21.319
        C11.819,234.422,14.042,231.412,17.329,230.564z M402.356,300.099c-1.837,1.866-4.29,2.893-6.908,2.893H136.056
        c-53.156,0-83.693-11.387-100.129-21.184c14.192,4.004,33.517,7.243,58.905,7.243c1.964,0,14.67-0.227,14.67-0.227
        c61.812-1.19,90.023-1.733,132.237-14.072c36.762-10.745,137.639-10.687,162.95-10.495l0.452,28.891
        C405.182,295.764,404.193,298.233,402.356,300.099z"/>
      <path d="M317.389,274.325h-40.667c-3.313,0-6,2.687-6,6s2.687,6,6,6h40.667c3.313,0,6-2.687,6-6S320.702,274.325,317.389,274.325z"
        />
      <path d="M388.056,274.325h-40.667c-3.313,0-6,2.687-6,6s2.687,6,6,6h40.667c3.313,0,6-2.687,6-6S391.369,274.325,388.056,274.325z"
        />
      <circle cx="233.389" cy="163.658" r="6.667"/>
      <circle cx="249.389" cy="172.325" r="6.667"/>
    </g>    
   </symbol>
   <symbol id="jacket" viewBox="0 0 470.004 470.004">
    <path d="M467.979,195.587L360.397,80.652c-6.716-7.168-19.552-14.101-29.222-15.783l-35.32-6.142l-2.874-32.271
      c-0.006-0.072-0.021-0.141-0.029-0.212c-0.013-0.114-0.028-0.228-0.047-0.343c-0.024-0.147-0.054-0.291-0.087-0.435
      c-0.014-0.061-0.021-0.121-0.036-0.181c-0.008-0.031-0.02-0.061-0.028-0.092c-0.042-0.158-0.091-0.312-0.143-0.465
      c-0.027-0.081-0.052-0.164-0.082-0.243c-0.054-0.145-0.116-0.285-0.179-0.426c-0.038-0.084-0.072-0.17-0.113-0.252
      c-0.06-0.121-0.128-0.238-0.194-0.355c-0.052-0.094-0.101-0.19-0.157-0.281c-0.053-0.085-0.113-0.165-0.168-0.247
      c-0.179-0.264-0.371-0.516-0.579-0.752c-0.03-0.034-0.057-0.071-0.087-0.104c-0.087-0.095-0.18-0.182-0.272-0.272
      c-0.077-0.076-0.151-0.155-0.231-0.227c-0.08-0.073-0.165-0.139-0.249-0.208c-0.099-0.083-0.198-0.167-0.301-0.244
      c-0.075-0.056-0.155-0.107-0.232-0.161c-0.118-0.081-0.236-0.163-0.358-0.238c-0.073-0.045-0.15-0.085-0.225-0.127
      c-0.131-0.074-0.263-0.146-0.398-0.213c-0.076-0.037-0.155-0.07-0.232-0.104c-0.137-0.061-0.274-0.12-0.416-0.173
      c-0.086-0.032-0.173-0.06-0.26-0.089c-0.134-0.045-0.268-0.088-0.405-0.125c-0.102-0.028-0.205-0.051-0.308-0.074
      c-0.124-0.028-0.247-0.054-0.373-0.076c-0.119-0.021-0.239-0.037-0.36-0.052c-0.114-0.014-0.227-0.027-0.343-0.036
      c-0.13-0.01-0.261-0.015-0.392-0.019c-0.063-0.001-0.123-0.009-0.186-0.009H184.489c-0.053,0-0.105,0.006-0.158,0.008
      c-0.146,0.003-0.292,0.009-0.437,0.021c-0.1,0.008-0.199,0.019-0.297,0.031c-0.133,0.016-0.266,0.034-0.398,0.057
      c-0.115,0.02-0.228,0.044-0.341,0.069c-0.111,0.025-0.221,0.05-0.33,0.08c-0.135,0.036-0.267,0.079-0.399,0.123
      c-0.084,0.028-0.169,0.055-0.253,0.087c-0.155,0.058-0.305,0.122-0.455,0.189c-0.059,0.026-0.118,0.051-0.176,0.079
      c-0.172,0.083-0.339,0.173-0.504,0.269c-0.035,0.02-0.07,0.038-0.105,0.059c-0.189,0.114-0.373,0.236-0.551,0.365
      c-1.711,1.254-2.869,3.175-3.067,5.399l-2.874,32.271l-35.32,6.142c-9.673,1.683-22.508,8.616-29.22,15.785L2.024,195.587
      C0.724,196.976,0,198.809,0,200.712v142.169c0,6.963,4.098,12.972,10,15.787v24.213c0,4.142,3.357,7.5,7.5,7.5h47.072
      c4.143,0,7.5-3.358,7.5-7.5v-24.213c5.902-2.816,10-8.824,10-15.787v-99.378l35.759-37.674v167.052c0,6.963,4.098,12.972,10,15.787
      v54.213c0,4.142,3.357,7.5,7.5,7.5h196.831c4.143,0,7.5-3.358,7.5-7.5v-53.235c7.223-2.155,12.507-8.851,12.507-16.765V205.83
      l35.763,37.678v99.374c0,6.961,4.096,12.969,9.996,15.786v24.214c0,4.142,3.357,7.5,7.5,7.5H452.5c4.143,0,7.5-3.358,7.5-7.5V358.67
      c5.904-2.815,10.004-8.824,10.004-15.788V200.712C470.004,198.809,469.28,196.976,467.979,195.587z M299.669,330.639h37.5v42.243
      c0,1.355-1.145,2.5-2.5,2.5H242.5V185.13c0-4.142-3.357-7.5-7.5-7.5s-7.5,3.358-7.5,7.5v190.252h-92.169c-1.355,0-2.5-1.145-2.5-2.5
      v-42.243h37.5c4.143,0,7.5-3.358,7.5-7.5s-3.357-7.5-7.5-7.5h-37.5V189.945c10.484-11.864,15-23.966,15-39.911V78.528l31.943-5.555
      L227.5,99.538v55.591c0,4.142,3.357,7.5,7.5,7.5s7.5-3.358,7.5-7.5V99.538l47.726-26.565l31.943,5.555v71.506
      c0,15.946,4.516,28.048,15,39.911v125.694h-37.5c-4.143,0-7.5,3.358-7.5,7.5S295.526,330.639,299.669,330.639z M227.5,405.382
      h-84.669v-15H227.5V405.382z M280.994,60.945l-37.29,20.756c4.934-26.427,23.939-38.936,35.207-44.138L280.994,60.945z M235,60.26
      c-5.57-11.637-13.395-19.953-20.484-25.638h40.967C248.395,40.307,240.57,48.623,235,60.26z M226.296,81.701l-37.29-20.756
      l2.082-23.382C202.356,42.765,221.362,55.275,226.296,81.701z M25,375.382v-15h32.072v15H25z M74.572,193.212
      c-4.143,0-7.5,3.358-7.5,7.5v142.169c0,1.355-1.145,2.5-2.5,2.5H17.5c-1.355,0-2.5-1.145-2.5-2.5V203.675L120.556,90.906
      c2.785-2.976,7.519-6.098,12.275-8.336v67.465c0,13.271-3.507,21.899-12.939,31.837l-37.819,39.845v-21.004
      C82.072,196.57,78.715,193.212,74.572,193.212z M142.831,420.382H227.5v15h-84.669V420.382z M242.5,435.382v-45h82.162v15H265
      c-4.143,0-7.5,3.358-7.5,7.5s3.357,7.5,7.5,7.5h59.662v15H242.5z M350.108,181.87c-9.433-9.937-12.939-18.566-12.939-31.836V82.569
      c4.757,2.238,9.492,5.361,12.279,8.336l105.556,112.77v139.207c0,1.355-1.146,2.5-2.504,2.5h-47.068c-1.355,0-2.5-1.145-2.5-2.5
      V200.712c0-4.142-3.357-7.5-7.5-7.5s-7.5,3.358-7.5,7.5v21.008L350.108,181.87z M412.928,375.382v-15H445v15H412.928z"/>     
   </symbol>
<symbol id="pants" viewBox="0 0 409.595 409.595">
  <path id="XMLID_514_" d="M338.89,88.209l-21.373-42.012V9c0-4.971-4.029-9-9-9H101.08c-4.971,0-9,4.029-9,9v37.197L70.705,88.209
    c-0.743,1.461-1.074,3.097-0.955,4.731l22.354,308.306c0.341,4.705,4.259,8.349,8.977,8.349h54.479c4.448,0,8.229-3.249,8.897-7.646
    l26.195-172.255c0.046-0.305,0.077-0.61,0.092-0.917l2.789-57.457h22.532l2.787,57.456c0.015,0.308,0.045,0.613,0.091,0.918
    l26.195,172.255c0.669,4.397,4.45,7.646,8.898,7.646h54.481c4.718,0,8.635-3.644,8.977-8.35L339.845,92.94
    C339.963,91.306,339.633,89.67,338.89,88.209z M300.146,391.595h-13.216l2.671-168.6c0.004-0.258-0.003-0.517-0.021-0.774
    l-6.95-98.77c-0.349-4.958-4.664-8.712-9.609-8.346c-4.958,0.349-8.695,4.651-8.346,9.609l6.922,98.383l-2.669,168.497h-7.156
    l-24.963-164.152l-2.722-56.123h3.533c4.971,0,9-4.029,9-9s-4.029-9-9-9h-65.644c-4.971,0-9,4.029-9,9s4.029,9,9,9h3.537
    l-2.724,56.123l-24.963,164.152h-7.235l-2.669-168.498l6.92-98.382c0.349-4.959-3.388-9.261-8.347-9.609
    c-4.951-0.366-9.26,3.388-9.609,8.346l-6.947,98.77c-0.018,0.258-0.025,0.517-0.021,0.774l2.671,168.6h-13.135L87.884,94.139
    l18.715-36.784h43.96c4.971,0,9-4.029,9-9s-4.029-9-9-9H110.08V18h189.437v21.354h-40.483c-4.971,0-9,4.029-9,9s4.029,9,9,9h43.964
    l18.713,36.783L300.146,391.595z M238.365,101.058c1.731,4.659-0.642,9.84-5.301,11.571c-1.034,0.384-2.093,0.565-3.134,0.565
    c-3.654,0-7.09-2.241-8.438-5.867l-16.693-44.92l-16.693,44.92c-1.348,3.626-4.784,5.867-8.438,5.867
    c-1.042,0-2.101-0.182-3.134-0.565c-4.659-1.731-7.033-6.912-5.301-11.571l20.62-55.485h-4.824c-4.971,0-9-4.029-9-9s4.029-9,9-9
    h35.54c4.971,0,9,4.029,9,9s-4.029,9-9,9h-4.822L238.365,101.058z"/>  
  </symbol>
<symbol id="arrow">
  <path d="M12 0c6.623 0 12 5.377 12 12s-5.377 12-12 12-12-5.377-12-12 5.377-12 12-12zm0 1c6.071 0 11 4.929 11 11s-4.929 11-11 11-11-4.929-11-11 4.929-11 11-11zm5.247 8l-5.247 6.44-5.263-6.44-.737.678 6 7.322 6-7.335-.753-.665z"/>
</symbol>
<symbol id="copyright" viewBox="0 0 276.715 276.715">
  <g>
  <path d="M138.357,0C62.066,0,0,62.066,0,138.357s62.066,138.357,138.357,138.357s138.357-62.066,138.357-138.357
    S214.648,0,138.357,0z M138.357,258.715C71.992,258.715,18,204.723,18,138.357S71.992,18,138.357,18
    s120.357,53.992,120.357,120.357S204.723,258.715,138.357,258.715z"/>
  <path d="M194.798,160.903c-4.188-2.677-9.753-1.454-12.432,2.732c-8.694,13.593-23.503,21.708-39.614,21.708
    c-25.908,0-46.985-21.078-46.985-46.986s21.077-46.986,46.985-46.986c15.633,0,30.2,7.747,38.968,20.723
    c2.782,4.117,8.375,5.201,12.496,2.418c4.118-2.782,5.201-8.377,2.418-12.496c-12.118-17.937-32.262-28.645-53.882-28.645
    c-35.833,0-64.985,29.152-64.985,64.986s29.152,64.986,64.985,64.986c22.281,0,42.759-11.218,54.778-30.009
    C200.208,169.147,198.985,163.582,194.798,160.903z"/>
</g>
</symbol>
</svg>